# This file uses centimeters as units for non-parametric coordinates.

mtllib Cuchillo.mtl
g default
v -2.500000 0.000000 2.500000
v 2.500000 0.000000 2.500000
v -2.500000 0.500000 2.500000
v 2.500000 0.500000 2.500000
v -2.500000 0.500000 -2.500000
v 2.500000 0.500000 -2.500000
v -2.500000 0.000000 -2.500000
v 2.500000 0.000000 -2.500000
v -2.364278 0.000000 2.500000
v -2.364278 0.500000 2.500000
v -2.364278 0.500000 -2.500000
v -2.364278 0.000000 -2.500000
v -2.500000 1.518259 2.500000
v -2.364278 1.518259 2.500000
v -2.364278 1.518259 -2.500000
v -2.500000 1.518259 -2.500000
vt 0.375000 0.000000
vt 0.625000 0.000000
vt 0.375000 0.250000
vt 0.625000 0.250000
vt 0.375000 0.500000
vt 0.625000 0.500000
vt 0.375000 0.750000
vt 0.625000 0.750000
vt 0.875000 0.000000
vt 0.875000 0.250000
vt 0.381786 0.000000
vt 0.381786 0.250000
vt 0.381786 0.500000
vt 0.381786 0.750000
vt 0.375000 0.250000
vt 0.381786 0.250000
vt 0.381786 0.500000
vt 0.375000 0.500000
vn 0.000000 0.000000 1.000000
vn 0.000000 0.000000 1.000000
vn 0.000000 0.000000 1.000000
vn 0.000000 0.000000 1.000000
vn 0.000000 1.000000 0.000000
vn 0.000000 1.000000 0.000000
vn 0.000000 1.000000 0.000000
vn 0.000000 1.000000 0.000000
vn 0.000000 0.000000 -1.000000
vn 0.000000 0.000000 -1.000000
vn 0.000000 0.000000 -1.000000
vn 0.000000 0.000000 -1.000000
vn 1.000000 0.000000 0.000000
vn 1.000000 0.000000 0.000000
vn 1.000000 0.000000 0.000000
vn 1.000000 0.000000 0.000000
vn 0.000000 0.000000 1.000000
vn 0.000000 0.000000 1.000000
vn 0.000000 1.000000 0.000000
vn 0.000000 1.000000 0.000000
vn 0.000000 1.000000 0.000000
vn 0.000000 1.000000 0.000000
vn 0.000000 0.000000 -1.000000
vn 0.000000 0.000000 -1.000000
vn 0.000000 0.000000 1.000000
vn 0.000000 0.000000 1.000000
vn 0.000000 0.000000 1.000000
vn 0.000000 0.000000 1.000000
vn 1.000000 0.000000 0.000000
vn 1.000000 0.000000 0.000000
vn 1.000000 0.000000 0.000000
vn 1.000000 0.000000 0.000000
vn 0.000000 0.000000 -1.000000
vn 0.000000 0.000000 -1.000000
vn 0.000000 0.000000 -1.000000
vn 0.000000 0.000000 -1.000000
s 1
g Tabla_cortar
usemtl initialShadingGroup
f 1/1/1 9/11/2 10/12/3 3/3/4
s off
f 13/15/5 14/16/6 15/17/7 16/18/8
s 2
f 5/5/9 11/13/10 12/14/11 7/7/12
s off
f 2/2/13 8/9/14 6/10/15 4/4/16
s 1
f 10/12/3 9/11/2 2/2/17 4/4/18
s off
f 11/13/19 10/12/20 4/4/21 6/6/22
s 2
f 12/14/11 11/13/10 6/6/23 8/8/24
s off
f 3/3/25 10/12/26 14/16/27 13/15/28
f 10/12/29 11/13/30 15/17/31 14/16/32
f 11/13/33 5/5/34 16/18/35 15/17/36
g default
v 1.361372 1.796507 0.533613
v 1.318984 1.780996 0.412467
v 1.376884 1.754119 0.412463
v 1.177877 2.297909 0.412476
v 1.151003 2.240011 0.412473
v 1.193390 2.255523 0.533628
v 1.193390 2.255520 0.048966
v 1.151004 2.240008 0.170114
v 1.177878 2.297908 0.170116
v 1.376885 1.754118 0.170103
v 1.318986 1.780992 0.170113
v 1.361373 1.796504 0.048951
v 3.699517 2.652180 0.412265
v 3.657132 2.636668 0.533426
v 3.672641 2.594281 0.412250
v 3.473635 3.138070 0.412559
v 3.489143 3.095677 0.533684
v 3.531534 3.111195 0.412538
v 3.531535 3.111194 0.170178
v 3.489149 3.095681 0.049022
v 3.473636 3.138068 0.170198
v 3.672642 2.594279 0.169890
v 3.657124 2.636667 0.048764
v 3.699517 2.652177 0.169903
vt 0.922054 0.047652
vt 1.000000 0.047654
vt 0.922127 1.000000
vt 0.827969 1.000000
vt 0.249997 1.000000
vt 0.000001 0.047653
vt 0.077948 0.047653
vt 0.000002 0.952348
vt 0.250041 1.000000
vt 0.922054 0.047652
vt 1.000000 0.047653
vt 0.922110 1.000000
vt 0.327917 1.000000
vt 0.000001 0.047653
vt 0.077948 0.047653
vt 0.000003 0.952348
vt 0.249679 1.000000
vt 0.249969 0.952348
vt 0.750029 0.952348
vt 0.749740 1.000000
vt 0.922056 1.000000
vt 0.077957 0.952342
vt 0.749796 1.000000
vt 0.249736 1.000000
vt 0.249970 0.952348
vt 0.922056 1.000000
vt 0.077950 1.000000
vt 0.077957 0.952342
vt 0.327951 1.000000
vt 0.827986 1.000000
vt 0.922056 0.952350
vt 0.922054 0.952349
vt 0.250102 0.047605
vt 0.750000 0.047605
vt 0.250076 0.047600
vt 0.750025 0.047600
vt 0.750031 0.952348
vt 0.000000 1.000000
vt 0.000000 1.000000
vt 0.000000 1.000000
vt 0.000000 1.000000
vt 0.750057 1.000000
vt 0.077980 1.000000
vt 0.750099 1.000000
vt 0.077973 1.000000
vt 1.000000 0.952348
vt 0.077951 1.000000
vt 1.000000 0.952348
vn 0.322078 -0.880002 0.349087
vn 0.322078 -0.880002 0.349087
vn 0.322078 -0.880002 0.349087
vn 0.322078 -0.880002 0.349087
vn -0.879999 -0.322053 0.349118
vn -0.879999 -0.322053 0.349118
vn -0.879999 -0.322053 0.349118
vn -0.879999 -0.322053 0.349118
vn -0.421029 -0.907047 0.000008
vn -0.421029 -0.907047 0.000008
vn -0.421029 -0.907047 0.000008
vn -0.421029 -0.907047 0.000008
vn -0.322050 0.879982 0.349165
vn -0.322050 0.879982 0.349165
vn -0.322050 0.879982 0.349165
vn -0.322050 0.879982 0.349165
vn -0.907054 0.421015 -0.000006
vn -0.907054 0.421015 -0.000006
vn -0.907054 0.421015 -0.000006
vn -0.907054 0.421015 -0.000006
vn -0.322041 0.880014 -0.349091
vn -0.322041 0.880014 -0.349091
vn -0.322041 0.880014 -0.349091
vn -0.322041 0.880014 -0.349091
vn -0.880007 -0.322043 -0.349107
vn -0.880007 -0.322043 -0.349107
vn -0.880007 -0.322043 -0.349107
vn -0.880007 -0.322043 -0.349107
vn 0.322016 -0.879995 -0.349162
vn 0.322016 -0.879995 -0.349162
vn 0.322016 -0.879995 -0.349162
vn 0.322016 -0.879995 -0.349162
vn 0.907047 -0.421029 0.000006
vn 0.907047 -0.421029 0.000006
vn 0.907047 -0.421029 0.000006
vn 0.907047 -0.421029 0.000006
vn 0.880061 0.321876 0.349126
vn 0.880061 0.321876 0.349126
vn 0.880061 0.321876 0.349126
vn 0.880061 0.321876 0.349126
vn 0.421026 0.907048 -0.000005
vn 0.421027 0.907048 -0.000005
vn 0.421026 0.907048 -0.000005
vn 0.421027 0.907048 -0.000005
vn 0.879930 0.322217 -0.349142
vn 0.879930 0.322217 -0.349142
vn 0.879930 0.322217 -0.349142
vn 0.879930 0.322217 -0.349142
vn -0.939090 -0.343670 -0.000001
vn -0.939090 -0.343670 -0.000001
vn -0.939090 -0.343670 -0.000001
vn -0.939090 -0.343670 -0.000001
vn 0.000121 -0.000253 1.000000
vn 0.000121 -0.000253 1.000000
vn 0.000121 -0.000253 1.000000
vn 0.000121 -0.000253 1.000000
vn -0.000121 0.000254 -1.000000
vn -0.000121 0.000254 -1.000000
vn -0.000121 0.000254 -1.000000
vn -0.000121 0.000254 -1.000000
vn 0.343672 -0.939090 0.000010
vn 0.343672 -0.939090 0.000010
vn 0.343672 -0.939090 0.000010
vn 0.343672 -0.939090 0.000010
vn -0.343672 0.939090 -0.000008
vn -0.343672 0.939090 -0.000008
vn -0.343672 0.939090 -0.000008
vn -0.343672 0.939090 -0.000008
vn 0.939090 0.343671 -0.000001
vn 0.939090 0.343671 -0.000001
vn 0.939090 0.343671 -0.000001
vn 0.939090 0.343671 -0.000001
vn -0.407133 -0.877122 0.254755
vn -0.407133 -0.877122 0.254755
vn -0.407133 -0.877122 0.254755
vn -0.877134 0.407114 0.254741
vn -0.877134 0.407114 0.254741
vn -0.877134 0.407114 0.254741
vn -0.877125 0.407130 -0.254750
vn -0.877125 0.407130 -0.254750
vn -0.877125 0.407129 -0.254750
vn -0.407163 -0.877114 -0.254735
vn -0.407163 -0.877114 -0.254735
vn -0.407163 -0.877114 -0.254735
vn 0.877107 -0.407202 0.254695
vn 0.877107 -0.407202 0.254695
vn 0.877107 -0.407202 0.254695
vn 0.407206 0.877067 0.254828
vn 0.407206 0.877067 0.254828
vn 0.407206 0.877067 0.254828
vn 0.407063 0.877165 -0.254720
vn 0.407063 0.877165 -0.254720
vn 0.407063 0.877165 -0.254720
vn 0.877127 -0.407078 -0.254825
vn 0.877127 -0.407078 -0.254825
vn 0.877127 -0.407078 -0.254825
s off
g pPlane2 Cuchillo
usemtl initialShadingGroup
f 17/19/37 19/20/38 31/64/39 30/49/40
f 18/22/41 17/21/42 22/61/43 21/47/44
f 19/60/45 18/22/46 27/31/47 26/23/48
f 20/24/49 22/25/50 33/40/51 32/26/52
f 21/47/53 20/27/54 25/62/55 24/48/56
f 23/28/57 25/29/58 37/66/59 36/50/60
f 24/48/61 23/30/62 28/63/63 27/31/64
f 26/32/65 28/33/66 39/46/67 38/34/68
f 29/35/69 31/36/70 38/37/71 40/38/72
f 30/49/73 29/39/74 34/65/75 33/40/76
f 32/55/77 34/41/78 35/42/79 37/43/80
f 36/50/81 35/44/82 40/45/83 39/46/84
f 21/47/85 24/48/86 27/31/87 18/22/88
f 22/25/89 17/19/90 30/49/91 33/40/92
f 28/33/93 23/28/94 36/50/95 39/46/96
f 19/51/97 26/52/98 38/37/99 31/36/100
f 25/53/101 20/54/102 32/55/103 37/43/104
f 34/56/105 29/57/106 40/58/107 35/59/108
f 17/21/109 18/22/110 19/60/111
f 20/27/112 21/47/113 22/61/114
f 23/30/115 24/48/116 25/62/117
f 26/23/118 27/31/119 28/63/120
f 29/39/121 30/49/122 31/64/123
f 32/26/124 33/40/125 34/65/126
f 35/44/127 36/50/128 37/66/129
f 38/34/130 39/46/131 40/45/132
g default
v -2.364278 0.956063 0.291288
v -1.219884 0.527060 0.291288
v -1.493506 1.274737 0.277108
v -0.413433 0.654722 0.291288
v -0.741105 1.550090 0.277108
v 0.083336 1.020970 0.291288
v -0.184806 1.753673 0.277108
v 0.351694 1.366526 0.291288
v 0.163380 1.881095 0.277108
v -1.493506 1.274737 0.305468
v -0.741105 1.550090 0.305468
v -0.184806 1.753673 0.305468
v 0.163380 1.881095 0.305468
v -1.247246 0.601827 0.277108
v -0.446200 0.744259 0.277108
v 0.056522 1.094241 0.277108
v 0.332862 1.417982 0.277108
v 0.332862 1.417982 0.305468
v 0.056522 1.094241 0.305468
v -0.446200 0.744259 0.305468
v -1.247246 0.601827 0.305468
v -2.314297 0.974354 0.305468
v -2.313086 0.974797 0.277108
v 0.338025 1.419476 0.305468
v 0.168413 1.882937 0.305468
v 0.168413 1.882937 0.277108
v 0.338024 1.419475 0.277108
v 2.810827 2.324434 0.305449
v 2.641217 2.787896 0.305449
v 2.641218 2.787894 0.277136
v 2.810827 2.324430 0.277136
vt 0.000040 0.571750
vt 1.000000 0.000000
vt 1.000000 1.000000
vt 0.000000 0.000000
vt 1.000000 0.000000
vt 1.000000 1.000000
vt 0.000000 1.000000
vt 0.000000 0.000000
vt 1.000000 0.000000
vt 1.000000 1.000000
vt 0.000000 1.000000
vt 0.000000 0.000000
vt 1.000000 0.000000
vt 1.000000 1.000000
vt 0.000000 1.000000
vt 0.000000 0.000000
vt 0.000040 0.571750
vt 1.000000 0.000000
vt 1.000000 1.000000
vt 0.000000 0.000000
vt 1.000000 0.000000
vt 1.000000 1.000000
vt 0.000000 1.000000
vt 0.000000 0.000000
vt 1.000000 0.000000
vt 1.000000 1.000000
vt 0.000000 1.000000
vt 0.000000 0.000000
vt 1.000000 0.000000
vt 1.000000 1.000000
vt 0.000000 1.000000
vt 0.000000 0.000000
vt 1.000000 1.000000
vt 0.000000 1.000000
vt 0.000000 0.000000
vt 0.000000 1.000000
vt 0.000000 0.000000
vt 0.000000 1.000000
vt 0.000000 0.000000
vt 0.000000 0.000000
vt 0.900000 0.000000
vt 1.000000 0.100000
vt 0.900000 0.000000
vt 0.900000 1.000000
vt 0.900000 0.000000
vt 0.900000 1.000000
vt 0.900000 0.000000
vt 0.900000 1.000000
vt 0.900000 0.500000
vt 0.900000 1.000000
vt 0.900000 0.000000
vt 0.900000 1.000000
vt 0.900000 0.000000
vt 1.000000 0.100000
vt 0.900000 0.000000
vt 0.057436 0.596331
vt 0.058827 0.596927
vt 0.058827 0.596927
vt 0.950000 0.001505
vt 0.000000 0.001504
vt 0.000000 0.003009
vt 0.500000 0.001504
vt 0.900000 0.003009
vt 1.000000 1.000000
vt 0.000000 1.000000
vt 0.000000 0.000000
vt 1.000000 1.000000
vt 0.000000 1.000000
vn -0.097286 -0.268416 0.958378
vn -0.097286 -0.268416 0.958378
vn -0.031557 -0.087066 0.995703
vn -0.038925 -0.107396 0.993454
vn 0.003329 -0.019814 0.999798
vn 0.002233 -0.013291 0.999909
vn 0.026957 -0.160438 0.986678
vn 0.026957 -0.160438 0.986678
vn 0.007332 -0.010232 0.999921
vn 0.013223 -0.018453 0.999742
vn 0.097495 -0.136053 0.985893
vn 0.097495 -0.136053 0.985893
vn 0.010448 -0.008503 0.999909
vn 0.034467 -0.028050 0.999012
vn 0.187033 -0.152214 0.970489
vn 0.187033 -0.152214 0.970489
vn -0.096611 -0.266259 -0.959048
vn -0.038845 -0.107057 -0.993494
vn -0.031550 -0.086951 -0.995713
vn -0.096611 -0.266259 -0.959048
vn 0.002233 -0.013291 -0.999909
vn 0.003329 -0.019814 -0.999798
vn 0.026957 -0.160438 -0.986678
vn 0.026957 -0.160438 -0.986678
vn 0.013223 -0.018453 -0.999742
vn 0.007332 -0.010232 -0.999921
vn 0.097495 -0.136053 -0.985893
vn 0.097495 -0.136053 -0.985893
vn 0.034467 -0.028050 -0.999012
vn 0.010448 -0.008503 -0.999909
vn 0.187033 -0.152214 -0.970489
vn 0.187033 -0.152214 -0.970489
vn -0.343676 0.939088 -0.000004
vn -0.343676 0.939088 -0.000004
vn -0.343678 0.939088 -0.000008
vn -0.343672 0.939090 0.000000
vn -0.343675 0.939089 -0.000002
vn -0.343675 0.939089 -0.000002
vn -0.343672 0.939090 0.000000
vn -0.343670 0.939091 0.000000
vn -0.343670 0.939091 0.000000
vn -0.343669 0.939091 0.000000
vn -0.343669 0.939091 0.000000
vn -0.343672 0.939090 0.000000
vn -0.343672 0.939090 0.000000
vn -0.000000 0.000000 -1.000000
vn -0.000000 0.000000 -1.000000
vn 0.000000 0.000000 -1.000000
vn 0.000000 0.000000 -1.000000
vn 0.000000 0.000000 -1.000000
vn 0.000000 0.000000 -1.000000
vn 0.000000 0.000000 -1.000000
vn 0.000010 0.000004 -1.000000
vn 0.000010 0.000004 -1.000000
vn 0.000000 0.000000 -1.000000
vn 0.000000 -0.000000 1.000000
vn 0.000000 -0.000000 1.000000
vn 0.000007 0.000002 1.000000
vn 0.000007 0.000002 1.000000
vn 0.000000 0.000000 1.000000
vn 0.000000 0.000000 1.000000
vn 0.000000 0.000000 1.000000
vn 0.000000 0.000000 1.000000
vn 0.000000 -0.000000 1.000000
vn 0.000000 -0.000000 1.000000
vn 0.000000 0.000000 1.000000
vn 0.000000 -0.000000 -1.000000
vn 0.000007 0.000002 1.000000
vn 0.000007 0.000002 1.000000
vn 0.000010 0.000004 -1.000000
vn 0.000010 0.000004 -1.000000
vn 0.343673 -0.939089 0.000071
vn 0.343673 -0.939089 0.000071
vn 0.343673 -0.939089 0.000071
vn 0.343673 -0.939089 0.000071
vn 0.962322 0.198717 0.185602
vn 0.962322 0.198717 0.185602
vn 0.962322 0.198717 0.185602
vn 0.962322 0.198717 0.185602
vn -0.343673 0.939089 -0.000045
vn -0.343673 0.939089 -0.000045
vn -0.343673 0.939089 -0.000045
vn -0.343673 0.939089 -0.000045
s 1
g Cuchillo pPlane1
usemtl initialShadingGroup
f 41/67/133 42/68/134 61/120/135 62/122/136
s 2
f 60/118/137 61/121/138 42/71/139 44/72/140
s 3
f 59/116/141 60/119/142 44/75/143 46/76/144
s 4
f 58/115/145 59/117/146 46/79/147 48/80/148
s 5
f 41/83/149 63/123/150 54/108/151 42/84/152
s 6
f 54/107/153 55/110/154 44/88/155 42/87/156
s 7
f 55/109/157 56/112/158 46/92/159 44/91/160
s 8
f 56/111/161 57/114/162 48/96/163 46/95/164
s 9
f 62/122/165 63/124/166 41/67/167
f 45/73/168 43/70/169 50/101/170 51/100/171
f 47/77/172 45/74/168 51/103/171 52/102/173
f 49/81/174 47/78/172 52/105/173 53/104/175
f 65/126/176 66/128/177 49/82/174 53/106/175
s 6
f 43/86/178 45/89/179 55/110/154 54/107/153
s 7
f 45/90/180 47/93/181 56/112/158 55/109/157
s 8
f 47/94/182 49/97/183 57/114/162 56/111/161
s 10
f 49/98/184 66/127/185 67/129/186 57/113/187
s 11
f 53/106/188 58/115/189 64/125/190 65/126/191
s 4
f 52/105/192 59/117/146 58/115/145 53/104/193
s 3
f 51/103/194 60/119/142 59/116/141 52/102/195
s 2
f 50/101/196 61/121/138 60/118/137 51/100/197
s 1
f 62/122/136 61/120/135 50/99/198
s 9
f 43/69/169 63/124/166 62/122/165 50/99/170
s 5
f 54/108/151 63/123/150 43/85/199
s 11
f 65/126/191 64/125/190 68/130/200 69/131/201
s 10
f 67/132/186 66/128/185 70/133/202 71/134/203
s off
f 68/130/204 64/125/205 67/132/206 71/134/207
f 58/115/208 48/80/209 67/132/210 64/125/211
f 65/126/212 69/131/213 70/133/214 66/128/215
